<svg xmlns="http://www.w3.org/2000/svg" viewBox="0 0 64 64" role="img" aria-label="암석 낙하 파츠"><title>암석 낙하 파츠</title><rect x="1" y="1" width="62" height="62" rx="13" fill="#b88848" fill-opacity=".11" stroke="#b88848" stroke-opacity=".28"/><g color="#b88848" stroke-linejoin="round" stroke-linecap="round"><g transform="translate(10 9) scale(.72)"><path d="M21 22L34 13L47 20L52 37L38 46L22 40L15 31Z" fill="currentColor" /><path d="M34 13L33 30L52 37M33 30L22 40" fill="none" stroke="#f9fdff" stroke-width="3"/><path d="M10 44L5 51M30 6V11M49 8L46 13M24 53H49M8 57H56" fill="none" stroke="currentColor" stroke-width="4" stroke-linecap="round" stroke-linejoin="round"/></g><path d="M8 45V51H34M48 9H56V27M8 29H12M29 7V12" stroke="#263e53" stroke-width="3" fill="none"/><circle cx="8" cy="45" r="3" fill="#263e53"/><circle cx="56" cy="27" r="3" fill="#263e53"/></g><path d="M51 44L56 47V55L51 58L46 55V47Z" fill="#263e53"/><circle cx="51" cy="51" r="3" fill="#f9fdff"/></svg>
